<?xml version="1.0" encoding="UTF-8"?>
<svg xmlns="http://www.w3.org/2000/svg" style="stroke-dasharray:none; shape-rendering:auto; font-family:'Arial'; text-rendering:auto; fill-opacity:1; color-interpolation:auto; color-rendering:auto; font-size:12; fill:black; stroke:black; image-rendering:auto; stroke-miterlimit:10; stroke-linecap:square; stroke-linejoin:miter; font-style:normal; stroke-width:1; stroke-dashoffset:0; font-weight:normal; stroke-opacity:1;" contentScriptType="text/ecmascript" preserveAspectRatio="xMidYMid meet" zoomAndPan="magnify" version="1.0" contentStyleType="text/css" xml:xlink="http://www.w3.org/1999/xlink" width="851" height="581"><rect x="40" y="340" width="811" height="241" ry="0" rx="0" style="stroke:#000000; fill:#FFFFFF" /><g componentSequence="3"><text x="-460" y="47" transform="rotate(270)" text-anchor="middle" style="font-weight:bold;font-size:10px;stroke:none; fill:#434343"><tspan dy="14" x="-460">Financeiro</tspan></text></g><rect x="40" y="190" width="811" height="151" ry="0" rx="0" style="stroke:#000000; fill:#FFFFFF" /><g componentSequence="2"><text x="-265" y="47" transform="rotate(270)" text-anchor="middle" style="font-weight:bold;font-size:10px;stroke:none; fill:#434343"><tspan dy="14" x="-265">Gestor</tspan></text></g><rect x="40" y="40" width="811" height="151" ry="0" rx="0" style="stroke:#000000; fill:#FFFFFF" /><g componentSequence="1"><text x="-115" y="47" transform="rotate(270)" text-anchor="middle" style="font-weight:bold;font-size:10px;stroke:none; fill:#434343"><tspan dy="14" x="-115">Solicitante</tspan></text></g><g sequence="4"><ellipse cx="167" cy="117" rx="17" ry="17" stroke-width="1" style="fill:url(#linearGradient66FF6696FF96B6FFB6_17240159);" stroke="336633" /></g><g sequence="5"><rect x="220" y="233" width="106" height="70" ry="5" rx="5" style="fill:url(#linearGradientF8FBFEEDF5FCDEEDFAD4E7F8E2E5E9_29419279);" stroke="191970" /></g><g componentSequence="5"><text x="273" y="248" text-anchor="middle" style="font-weight:bold;font-size:10px;stroke:none; fill:#333399"><tspan dy="14" x="273">Receber</tspan><tspan dy="14" x="273">Solicitud</tspan></text></g><g sequence="7"><polygon points=" 430 247 460 217 490 247 460 277 430 247" style="fill:url(#linearGradientFAFBFCFFFFCC_33520431);" stroke="000000" /></g><g componentSequence="7"><text x="460" y="287" text-anchor="middle" style="font-weight:bold;font-size:10px;stroke:none; fill:#333399"><tspan dy="14" x="460">Exclusiv</tspan><tspan dy="14" x="460">o</tspan></text></g><g sequence="9"><rect x="610" y="233" width="106" height="70" ry="5" rx="5" style="fill:url(#linearGradientF8FBFEEDF5FCDEEDFAD4E7F8E2E5E9_16641332);" stroke="191970" /></g><g componentSequence="9"><text x="663" y="248" text-anchor="middle" style="font-weight:bold;font-size:10px;stroke:none; fill:#333399"><tspan dy="14" x="663">Comunicar</tspan><tspan dy="14" x="663">Solicitante</tspan></text></g><g sequence="10"><rect x="400" y="400" width="106" height="70" ry="5" rx="5" style="fill:url(#linearGradientF8FBFEEDF5FCDEEDFAD4E7F8E2E5E9_17403996);" stroke="191970" /></g><g componentSequence="10"><text x="453" y="424" text-anchor="middle" style="font-weight:bold;font-size:10px;stroke:none; fill:#333399"><tspan dy="14" x="453">Analizar Compra</tspan></text></g><g sequence="13"><ellipse cx="807" cy="347" rx="17" ry="17" stroke-width="3" style="fill:url(#linearGradientFF6666FF9696FFB6B6_20048173);" stroke="993333" /></g><g sequence="15"><polygon points=" 610 410 640 380 670 410 640 440 610 410" style="fill:url(#linearGradientFAFBFCFFFFCC_19909351);" stroke="000000" /></g><g componentSequence="15"><text x="640" y="450" text-anchor="middle" style="font-weight:bold;font-size:10px;stroke:none; fill:#333399"><tspan dy="14" x="640">Exclusiv</tspan><tspan dy="14" x="640">o</tspan></text></g><g sequence="18"><rect x="590" y="500" width="106" height="70" ry="5" rx="5" style="fill:url(#linearGradientF8FBFEEDF5FCDEEDFAD4E7F8E2E5E9_13767291);" stroke="191970" /></g><g componentSequence="18"><text x="643" y="524" text-anchor="middle" style="font-weight:bold;font-size:10px;stroke:none; fill:#333399"><tspan dy="14" x="643">Realizar Compra</tspan></text></g><g componentSequence="6"><text x="283" y="131" style="font-size:10px;font-weight:none;stroke:none; fill:#333399" text-anchor="left" /></g><g componentSequence="8"><text x="388" y="268" style="font-size:10px;font-weight:none;stroke:none; fill:#333399" text-anchor="left" /></g><g componentSequence="11"><text x="466" y="359" style="font-size:10px;font-weight:none;stroke:none; fill:#333399" text-anchor="left" /></g><g componentSequence="12"><text x="560" y="268" style="font-size:10px;font-weight:none;stroke:none; fill:#333399" text-anchor="left" /></g><g componentSequence="14"><text x="803" y="267" style="font-size:10px;font-weight:none;stroke:none; fill:#333399" text-anchor="left" /></g><g componentSequence="16"><text x="568" y="433" style="font-size:10px;font-weight:none;stroke:none; fill:#333399" text-anchor="left" /></g><g componentSequence="17"><text x="786" y="439" style="font-size:10px;font-weight:none;stroke:none; fill:#333399" text-anchor="left" /></g><g componentSequence="19"><text x="651" y="491" style="font-size:10px;font-weight:none;stroke:none; fill:#333399" text-anchor="left" /></g><g componentSequence="20"><text x="817" y="506" style="font-size:10px;font-weight:none;stroke:none; fill:#333399" text-anchor="left" /></g><path style="fill:none; stroke:#000000;stroke-width:1" d="M185.0 117.0 L273.0 117.0 L273.0 232.0" /><polygon style="fill:#000000; stroke:#000000;" points=" 278 222 273 232 268 222 273 224" /><path style="fill:none; stroke:#000000;stroke-width:1" d="M326.0 268.0 L429.0 268.0" /><polygon style="fill:#000000; stroke:#000000;" points=" 419 263 429 268 419 273 421 268" /><path style="fill:none; stroke:#000000;stroke-width:1" d="M458.0 319.0 L454.0 399.0" /><polygon style="fill:#000000; stroke:#000000;" points=" 459 389 454 399 450 389 454 391" /><path style="fill:none; stroke:#000000;stroke-width:1" d="M490.0 268.0 L609.0 268.0" /><polygon style="fill:#000000; stroke:#000000;" points=" 599 263 609 268 599 273 601 268" /><path style="fill:none; stroke:#000000;stroke-width:1" d="M716.0 267.0 L807.0 267.0 L807.0 329.0" /><polygon style="fill:#000000; stroke:#000000;" points=" 812 319 807 329 802 319 807 321" /><path style="fill:none; stroke:#000000;stroke-width:1" d="M506.0 434.0 L609.0 431.0" /><polygon style="fill:#000000; stroke:#000000;" points=" 599 426 609 431 599 436 601 431" /><path style="fill:none; stroke:#000000;stroke-width:1" d="M670.0 432.0 L807.0 441.0 L807.0 365.0" /><polygon style="fill:#000000; stroke:#000000;" points=" 802 375 807 365 812 375 807 373" /><path style="fill:none; stroke:#000000;stroke-width:1" d="M696.0 535.0 L807.0 535.0 L807.0 365.0" /><polygon style="fill:#000000; stroke:#000000;" points=" 802 375 807 365 812 375 807 373" /><path style="fill:none; stroke:#000000;stroke-width:1" d="M641.0 482.0 L642.0 499.0" /><polygon style="fill:#000000; stroke:#000000;" points=" 646 489 642 499 636 489 642 491" /><defs><linearGradient xmlns:xlink="http://www.w3.org/1999/xlink" xlink:href="#linearGradient66FF6696FF96B6FFB6" id="linearGradient66FF6696FF96B6FFB6_17240159" x1="0" y1="100.0" x2="0" y2="135.0" gradientUnits="userSpaceOnUse" xlink:type="simple" xlink:actuate="onLoad" xlink:show="other" /><linearGradient id="linearGradient66FF6696FF96B6FFB6"><stop style="stop-color:#66FF66;stop-opacity:1;" offset="0.0" id="stop66FF66" /><stop style="stop-color:#96FF96;stop-opacity:1;" offset="0.5" id="stop96FF96" /><stop style="stop-color:#B6FFB6;stop-opacity:1;" offset="1.0" id="stopB6FFB6" /></linearGradient><linearGradient xmlns:xlink="http://www.w3.org/1999/xlink" xlink:href="#linearGradientF8FBFEEDF5FCDEEDFAD4E7F8E2E5E9" id="linearGradientF8FBFEEDF5FCDEEDFAD4E7F8E2E5E9_29419279" x1="0" y1="233.0" x2="0" y2="339.0" gradientUnits="userSpaceOnUse" xlink:type="simple" xlink:actuate="onLoad" xlink:show="other" /><linearGradient id="linearGradientF8FBFEEDF5FCDEEDFAD4E7F8E2E5E9"><stop style="stop-color:#F8FBFE;stop-opacity:1;" offset="0.0" id="stopF8FBFE" /><stop style="stop-color:#EDF5FC;stop-opacity:1;" offset="0.25" id="stopEDF5FC" /><stop style="stop-color:#DEEDFA;stop-opacity:1;" offset="0.5" id="stopDEEDFA" /><stop style="stop-color:#D4E7F8;stop-opacity:1;" offset="0.75" id="stopD4E7F8" /><stop style="stop-color:#E2E5E9;stop-opacity:1;" offset="1.0" id="stopE2E5E9" /></linearGradient><linearGradient xmlns:xlink="http://www.w3.org/1999/xlink" xlink:href="#linearGradientFAFBFCFFFFCC" id="linearGradientFAFBFCFFFFCC_33520431" x1="0" y1="217.0" x2="0" y2="277.0" gradientUnits="userSpaceOnUse" xlink:type="simple" xlink:actuate="onLoad" xlink:show="other" /><linearGradient id="linearGradientFAFBFCFFFFCC"><stop style="stop-color:#FAFBFC;stop-opacity:1;" offset="0.0" id="stopFAFBFC" /><stop style="stop-color:#FFFFCC;stop-opacity:1;" offset="1.0" id="stopFFFFCC" /></linearGradient><linearGradient xmlns:xlink="http://www.w3.org/1999/xlink" xlink:href="#linearGradientF8FBFEEDF5FCDEEDFAD4E7F8E2E5E9" id="linearGradientF8FBFEEDF5FCDEEDFAD4E7F8E2E5E9_16641332" x1="0" y1="233.0" x2="0" y2="339.0" gradientUnits="userSpaceOnUse" xlink:type="simple" xlink:actuate="onLoad" xlink:show="other" /><linearGradient xmlns:xlink="http://www.w3.org/1999/xlink" xlink:href="#linearGradientF8FBFEEDF5FCDEEDFAD4E7F8E2E5E9" id="linearGradientF8FBFEEDF5FCDEEDFAD4E7F8E2E5E9_17403996" x1="0" y1="400.0" x2="0" y2="506.0" gradientUnits="userSpaceOnUse" xlink:type="simple" xlink:actuate="onLoad" xlink:show="other" /><linearGradient xmlns:xlink="http://www.w3.org/1999/xlink" xlink:href="#linearGradientFF6666FF9696FFB6B6" id="linearGradientFF6666FF9696FFB6B6_20048173" x1="0" y1="330.0" x2="0" y2="365.0" gradientUnits="userSpaceOnUse" xlink:type="simple" xlink:actuate="onLoad" xlink:show="other" /><linearGradient id="linearGradientFF6666FF9696FFB6B6"><stop style="stop-color:#FF6666;stop-opacity:1;" offset="0.0" id="stopFF6666" /><stop style="stop-color:#FF9696;stop-opacity:1;" offset="0.5" id="stopFF9696" /><stop style="stop-color:#FFB6B6;stop-opacity:1;" offset="1.0" id="stopFFB6B6" /></linearGradient><linearGradient xmlns:xlink="http://www.w3.org/1999/xlink" xlink:href="#linearGradientFAFBFCFFFFCC" id="linearGradientFAFBFCFFFFCC_19909351" x1="0" y1="380.0" x2="0" y2="440.0" gradientUnits="userSpaceOnUse" xlink:type="simple" xlink:actuate="onLoad" xlink:show="other" /><linearGradient xmlns:xlink="http://www.w3.org/1999/xlink" xlink:href="#linearGradientF8FBFEEDF5FCDEEDFAD4E7F8E2E5E9" id="linearGradientF8FBFEEDF5FCDEEDFAD4E7F8E2E5E9_13767291" x1="0" y1="500.0" x2="0" y2="606.0" gradientUnits="userSpaceOnUse" xlink:type="simple" xlink:actuate="onLoad" xlink:show="other" /></defs></svg>
