<?xml version="1.0" encoding="UTF-8"?>
<svg xmlns="http://www.w3.org/2000/svg" style="stroke-dasharray:none; shape-rendering:auto; font-family:'Arial'; text-rendering:auto; fill-opacity:1; color-interpolation:auto; color-rendering:auto; font-size:12; fill:black; stroke:black; image-rendering:auto; stroke-miterlimit:10; stroke-linecap:square; stroke-linejoin:miter; font-style:normal; stroke-width:1; stroke-dashoffset:0; font-weight:normal; stroke-opacity:1;" contentScriptType="text/ecmascript" preserveAspectRatio="xMidYMid meet" zoomAndPan="magnify" version="1.0" contentStyleType="text/css" xml:xlink="http://www.w3.org/1999/xlink" width="881" height="581"><rect x="70" y="192" width="811" height="151" ry="0" rx="0" style="stroke:#000000; fill:#FFFFFF" /><g componentSequence="2"><text x="-267" y="77" transform="rotate(270)" text-anchor="middle" style="font-weight:bold;font-size:10px;stroke:none; fill:#434343"><tspan dy="14" x="-267">Gestor</tspan></text></g><rect x="70" y="340" width="811" height="241" ry="0" rx="0" style="stroke:#000000; fill:#FFFFFF" /><g componentSequence="3"><text x="-460" y="77" transform="rotate(270)" text-anchor="middle" style="font-weight:bold;font-size:10px;stroke:none; fill:#434343"><tspan dy="14" x="-460">Financeiro</tspan></text></g><rect x="70" y="40" width="811" height="151" ry="0" rx="0" style="stroke:#000000; fill:#FFFFFF" /><g componentSequence="1"><text x="-115" y="77" transform="rotate(270)" text-anchor="middle" style="font-weight:bold;font-size:10px;stroke:none; fill:#434343"><tspan dy="14" x="-115">Solicitante</tspan></text></g><g sequence="4"><ellipse cx="197" cy="117" rx="17" ry="17" stroke-width="1" style="fill:url(#linearGradient66FF6696FF96B6FFB6_1155534279);" stroke="336633" /></g><g sequence="5"><rect x="260" y="233" width="106" height="70" ry="5" rx="5" style="fill:url(#linearGradientF8FBFEEDF5FCDEEDFAD4E7F8E2E5E9_1244130091);" stroke="191970" /></g><g componentSequence="5"><text x="313" y="248" text-anchor="middle" style="font-weight:bold;font-size:10px;stroke:none; fill:#333399"><tspan dy="14" x="313">Receber</tspan><tspan dy="14" x="313">Solicitud</tspan></text></g><g sequence="6"><polygon points=" 460 247 490 217 520 247 490 277 460 247" style="fill:url(#linearGradientFAFBFCFFFFCC_1310222007);" stroke="000000" /></g><g componentSequence="6"><text x="490" y="287" text-anchor="middle" style="font-weight:bold;font-size:10px;stroke:none; fill:#333399"><tspan dy="14" x="490">Exclusiv</tspan><tspan dy="14" x="490">o</tspan></text></g><g sequence="7"><rect x="610" y="233" width="106" height="70" ry="5" rx="5" style="fill:url(#linearGradientF8FBFEEDF5FCDEEDFAD4E7F8E2E5E9_186310928);" stroke="191970" /></g><g componentSequence="7"><text x="663" y="248" text-anchor="middle" style="font-weight:bold;font-size:10px;stroke:none; fill:#333399"><tspan dy="14" x="663">Comunicar</tspan><tspan dy="14" x="663">Solicitante</tspan></text></g><g sequence="8"><ellipse cx="827" cy="337" rx="17" ry="17" stroke-width="3" style="fill:url(#linearGradientFF6666FF9696FFB6B6_1330666369);" stroke="993333" /></g><g sequence="9"><rect x="440" y="400" width="106" height="70" ry="5" rx="5" style="fill:url(#linearGradientF8FBFEEDF5FCDEEDFAD4E7F8E2E5E9_979079155);" stroke="191970" /></g><g componentSequence="9"><text x="493" y="424" text-anchor="middle" style="font-weight:bold;font-size:10px;stroke:none; fill:#333399"><tspan dy="14" x="493">Analizar Compra</tspan></text></g><g sequence="10"><polygon points=" 640 410 670 380 700 410 670 440 640 410" style="fill:url(#linearGradientFAFBFCFFFFCC_939224017);" stroke="000000" /></g><g componentSequence="10"><text x="670" y="450" text-anchor="middle" style="font-weight:bold;font-size:10px;stroke:none; fill:#333399"><tspan dy="14" x="670">Exclusiv</tspan><tspan dy="14" x="670">o</tspan></text></g><g sequence="11"><rect x="620" y="500" width="106" height="70" ry="5" rx="5" style="fill:url(#linearGradientF8FBFEEDF5FCDEEDFAD4E7F8E2E5E9_1798643295);" stroke="191970" /></g><g componentSequence="11"><text x="673" y="524" text-anchor="middle" style="font-weight:bold;font-size:10px;stroke:none; fill:#333399"><tspan dy="14" x="673">Realizar Compra</tspan></text></g><g componentSequence="12"><text x="322" y="126" style="font-size:10px;font-weight:none;stroke:none; fill:#333399" text-anchor="left" /></g><g componentSequence="13"><text x="423" y="268" style="font-size:10px;font-weight:none;stroke:none; fill:#333399" text-anchor="left" /></g><g componentSequence="14"><text x="575" y="268" style="font-size:10px;font-weight:none;stroke:none; fill:#333399" text-anchor="left"><tspan dy="14" x="575">No</tspan></text></g><g componentSequence="15"><text x="806" y="269" style="font-size:10px;font-weight:none;stroke:none; fill:#333399" text-anchor="left" /></g><g componentSequence="16"><text x="502" y="359" style="font-size:10px;font-weight:none;stroke:none; fill:#333399" text-anchor="left"><tspan dy="14" x="502">Si</tspan></text></g><g componentSequence="17"><text x="603" y="432" style="font-size:10px;font-weight:none;stroke:none; fill:#333399" text-anchor="left" /></g><g componentSequence="18"><text x="681" y="491" style="font-size:10px;font-weight:none;stroke:none; fill:#333399" text-anchor="left"><tspan dy="14" x="681">Si</tspan></text></g><g componentSequence="19"><text x="811" y="430" style="font-size:10px;font-weight:none;stroke:none; fill:#333399" text-anchor="left"><tspan dy="14" x="811">No</tspan></text></g><g componentSequence="20"><text x="837" y="496" style="font-size:10px;font-weight:none;stroke:none; fill:#333399" text-anchor="left" /></g><path style="fill:none; stroke:#000000;stroke-width:1" d="M215.0 117.0 L312.0 117.0 L312.0 232.0" /><polygon style="fill:#000000; stroke:#000000;" points=" 317 222 312 232 307 222 312 224" /><path style="fill:none; stroke:#000000;stroke-width:1" d="M366.0 268.0 L459.0 268.0" /><polygon style="fill:#000000; stroke:#000000;" points=" 449 263 459 268 449 273 451 268" /><path style="fill:none; stroke:#000000;stroke-width:1" d="M520.0 268.0 L609.0 268.0" /><polygon style="fill:#000000; stroke:#000000;" points=" 599 263 609 268 599 273 601 268" /><path style="fill:none; stroke:#000000;stroke-width:1" d="M491.0 319.0 L492.0 399.0" /><polygon style="fill:#000000; stroke:#000000;" points=" 497 389 492 399 487 389 492 391" /><path style="fill:none; stroke:#000000;stroke-width:1" d="M716.0 268.0 L827.0 269.0 L827.0 319.0" /><polygon style="fill:#000000; stroke:#000000;" points=" 832 309 827 319 822 309 827 311" /><path style="fill:none; stroke:#000000;stroke-width:1" d="M700.0 430.0 L827.0 430.0 L827.0 355.0" /><polygon style="fill:#000000; stroke:#000000;" points=" 822 365 827 355 832 365 827 363" /><path style="fill:none; stroke:#000000;stroke-width:1" d="M726.0 535.0 L827.0 535.0 L827.0 355.0" /><polygon style="fill:#000000; stroke:#000000;" points=" 822 365 827 355 832 365 827 363" /><path style="fill:none; stroke:#000000;stroke-width:1" d="M546.0 433.0 L639.0 431.0" /><polygon style="fill:#000000; stroke:#000000;" points=" 629 426 639 431 629 436 631 431" /><path style="fill:none; stroke:#000000;stroke-width:1" d="M671.0 482.0 L672.0 499.0" /><polygon style="fill:#000000; stroke:#000000;" points=" 676 489 672 499 666 489 672 491" /><defs><linearGradient xmlns:xlink="http://www.w3.org/1999/xlink" xlink:href="#linearGradient66FF6696FF96B6FFB6" id="linearGradient66FF6696FF96B6FFB6_1155534279" x1="0" y1="100.0" x2="0" y2="135.0" gradientUnits="userSpaceOnUse" xlink:type="simple" xlink:actuate="onLoad" xlink:show="other" /><linearGradient id="linearGradient66FF6696FF96B6FFB6"><stop style="stop-color:#66FF66;stop-opacity:1;" offset="0.0" id="stop66FF66" /><stop style="stop-color:#96FF96;stop-opacity:1;" offset="0.5" id="stop96FF96" /><stop style="stop-color:#B6FFB6;stop-opacity:1;" offset="1.0" id="stopB6FFB6" /></linearGradient><linearGradient xmlns:xlink="http://www.w3.org/1999/xlink" xlink:href="#linearGradientF8FBFEEDF5FCDEEDFAD4E7F8E2E5E9" id="linearGradientF8FBFEEDF5FCDEEDFAD4E7F8E2E5E9_1244130091" x1="0" y1="233.0" x2="0" y2="339.0" gradientUnits="userSpaceOnUse" xlink:type="simple" xlink:actuate="onLoad" xlink:show="other" /><linearGradient id="linearGradientF8FBFEEDF5FCDEEDFAD4E7F8E2E5E9"><stop style="stop-color:#F8FBFE;stop-opacity:1;" offset="0.0" id="stopF8FBFE" /><stop style="stop-color:#EDF5FC;stop-opacity:1;" offset="0.25" id="stopEDF5FC" /><stop style="stop-color:#DEEDFA;stop-opacity:1;" offset="0.5" id="stopDEEDFA" /><stop style="stop-color:#D4E7F8;stop-opacity:1;" offset="0.75" id="stopD4E7F8" /><stop style="stop-color:#E2E5E9;stop-opacity:1;" offset="1.0" id="stopE2E5E9" /></linearGradient><linearGradient xmlns:xlink="http://www.w3.org/1999/xlink" xlink:href="#linearGradientFAFBFCFFFFCC" id="linearGradientFAFBFCFFFFCC_1310222007" x1="0" y1="217.0" x2="0" y2="277.0" gradientUnits="userSpaceOnUse" xlink:type="simple" xlink:actuate="onLoad" xlink:show="other" /><linearGradient id="linearGradientFAFBFCFFFFCC"><stop style="stop-color:#FAFBFC;stop-opacity:1;" offset="0.0" id="stopFAFBFC" /><stop style="stop-color:#FFFFCC;stop-opacity:1;" offset="1.0" id="stopFFFFCC" /></linearGradient><linearGradient xmlns:xlink="http://www.w3.org/1999/xlink" xlink:href="#linearGradientF8FBFEEDF5FCDEEDFAD4E7F8E2E5E9" id="linearGradientF8FBFEEDF5FCDEEDFAD4E7F8E2E5E9_186310928" x1="0" y1="233.0" x2="0" y2="339.0" gradientUnits="userSpaceOnUse" xlink:type="simple" xlink:actuate="onLoad" xlink:show="other" /><linearGradient xmlns:xlink="http://www.w3.org/1999/xlink" xlink:href="#linearGradientFF6666FF9696FFB6B6" id="linearGradientFF6666FF9696FFB6B6_1330666369" x1="0" y1="320.0" x2="0" y2="355.0" gradientUnits="userSpaceOnUse" xlink:type="simple" xlink:actuate="onLoad" xlink:show="other" /><linearGradient id="linearGradientFF6666FF9696FFB6B6"><stop style="stop-color:#FF6666;stop-opacity:1;" offset="0.0" id="stopFF6666" /><stop style="stop-color:#FF9696;stop-opacity:1;" offset="0.5" id="stopFF9696" /><stop style="stop-color:#FFB6B6;stop-opacity:1;" offset="1.0" id="stopFFB6B6" /></linearGradient><linearGradient xmlns:xlink="http://www.w3.org/1999/xlink" xlink:href="#linearGradientF8FBFEEDF5FCDEEDFAD4E7F8E2E5E9" id="linearGradientF8FBFEEDF5FCDEEDFAD4E7F8E2E5E9_979079155" x1="0" y1="400.0" x2="0" y2="506.0" gradientUnits="userSpaceOnUse" xlink:type="simple" xlink:actuate="onLoad" xlink:show="other" /><linearGradient xmlns:xlink="http://www.w3.org/1999/xlink" xlink:href="#linearGradientFAFBFCFFFFCC" id="linearGradientFAFBFCFFFFCC_939224017" x1="0" y1="380.0" x2="0" y2="440.0" gradientUnits="userSpaceOnUse" xlink:type="simple" xlink:actuate="onLoad" xlink:show="other" /><linearGradient xmlns:xlink="http://www.w3.org/1999/xlink" xlink:href="#linearGradientF8FBFEEDF5FCDEEDFAD4E7F8E2E5E9" id="linearGradientF8FBFEEDF5FCDEEDFAD4E7F8E2E5E9_1798643295" x1="0" y1="500.0" x2="0" y2="606.0" gradientUnits="userSpaceOnUse" xlink:type="simple" xlink:actuate="onLoad" xlink:show="other" /></defs></svg>
